# xmcd
#
# Track frame offsets: 
#        150
#        20784
#        67754
#        85127
#        117524
#        148207
#        174628
#        184588
#        201554
#        220625
#
# Disc length: 3304 seconds
#
# Revision: 1
# Processed by: cddbd v1.5.2PL0 Copyright (c) Steve Scherf et al.
# Submitted via: ExactAudioCopy v1.0b1
#
DISCID=940ce60a
DTITLE=Various Artist - AFTER SCHOOL JAZZ
DYEAR=2004
DGENRE=Jazz
TTITLE0=菊地成孔 - Joan of Arc in the Money Jungle -UAの歌唱による「マネージャングルのジャンヌ
TTITLE0=・ダルク」-
TTITLE1=東京ザヴィヌルバッハ - HORIZONING
TTITLE2=WaSaBi! - Boogaloo A GoGo
TTITLE3=南博 GO THERE! - Elizabeth Taylor
TTITLE4=藤原大輔 - noman's sand
TTITLE5=VINCENT ATMICUS - くつわむし
TTITLE6=青木タイセイ - THE AFTERNOON
TTITLE7=Warehouse - 4ノットの悪夢
TTITLE8=SGK - 動く標的
TTITLE9=鼓醒 - Kick your Earth
EXTD=YEAR: 2004
EXTT0=
EXTT1=
EXTT2=
EXTT3=
EXTT4=
EXTT5=
EXTT6=
EXTT7=
EXTT8=
EXTT9=
PLAYORDER=
